<svg xmlns="http://www.w3.org/2000/svg" viewBox="0 0 512 512" role="img" aria-label="FISH TARGET">
  <defs>
    <linearGradient id="aqua" x1="0" y1="0" x2="1" y2="1">
      <stop offset="0" stop-color="#16d7e7"/>
      <stop offset="1" stop-color="#57ed9c"/>
    </linearGradient>
  </defs>
  <rect width="512" height="512" rx="112" fill="#061b22"/>
  <g fill="none" stroke="url(#aqua)" stroke-width="24" stroke-linecap="round">
    <path d="M256 70a186 186 0 0 1 186 186"/>
    <path d="M442 256a186 186 0 0 1-186 186"/>
    <path d="M256 442A186 186 0 0 1 70 256"/>
    <path d="M70 256A186 186 0 0 1 256 70"/>
  </g>
  <g fill="url(#aqua)">
    <path d="M256 42l13 45h-26z"/>
    <path d="M470 256l-45 13v-26z"/>
    <path d="M256 470l-13-45h26z"/>
    <path d="M42 256l45-13v26z"/>
    <path d="M128 256 67 197l20 59-20 59z"/>
    <path d="M150 285c54 35 124 45 200 8-37 46-111 63-177 31z" opacity=".95"/>
  </g>
  <path d="M112 256c66-52 131-80 202-62 43 11 79 34 111 62-34 29-72 51-114 61-70 17-134-9-199-61Z" fill="#fff"/>
  <path d="M163 240c40-9 86-15 137-8-57 2-109 15-154 37-20 10-39 22-56 36 14-27 39-49 73-65Z" fill="#eef4f6" opacity=".82"/>
  <circle cx="350" cy="245" r="14" fill="#061b22"/>
</svg>
